<?xml version="1.0" encoding="UTF-8" ?>
<svg version="1.1" width="1024" height="1024" xmlns="http://www.w3.org/2000/svg" shape-rendering="crispEdges">
<rect x="80" y="48" width="16" height="16" fill="#625565" />
<rect x="96" y="48" width="16" height="16" fill="#625565" />
<rect x="112" y="48" width="16" height="16" fill="#625565" />
<rect x="128" y="48" width="16" height="16" fill="#625565" />
<rect x="144" y="48" width="16" height="16" fill="#625565" />
<rect x="160" y="48" width="16" height="16" fill="#625565" />
<rect x="176" y="48" width="16" height="16" fill="#625565" />
<rect x="192" y="48" width="16" height="16" fill="#625565" />
<rect x="208" y="48" width="16" height="16" fill="#625565" />
<rect x="224" y="48" width="16" height="16" fill="#625565" />
<rect x="240" y="48" width="16" height="16" fill="#625565" />
<rect x="256" y="48" width="16" height="16" fill="#625565" />
<rect x="32" y="64" width="16" height="16" fill="#625565" />
<rect x="48" y="64" width="16" height="16" fill="#625565" />
<rect x="64" y="64" width="16" height="16" fill="#625565" />
<rect x="80" y="64" width="16" height="16" fill="#625565" />
<rect x="96" y="64" width="16" height="16" fill="#966C6C" />
<rect x="112" y="64" width="16" height="16" fill="#966C6C" />
<rect x="128" y="64" width="16" height="16" fill="#966C6C" />
<rect x="144" y="64" width="16" height="16" fill="#966C6C" />
<rect x="160" y="64" width="16" height="16" fill="#966C6C" />
<rect x="176" y="64" width="16" height="16" fill="#966C6C" />
<rect x="192" y="64" width="16" height="16" fill="#966C6C" />
<rect x="208" y="64" width="16" height="16" fill="#966C6C" />
<rect x="224" y="64" width="16" height="16" fill="#966C6C" />
<rect x="240" y="64" width="16" height="16" fill="#966C6C" />
<rect x="256" y="64" width="16" height="16" fill="#966C6C" />
<rect x="272" y="64" width="16" height="16" fill="#966C6C" />
<rect x="288" y="64" width="16" height="16" fill="#966C6C" />
<rect x="304" y="64" width="16" height="16" fill="#966C6C" />
<rect x="80" y="80" width="16" height="16" fill="#966C6C" />
<rect x="96" y="80" width="16" height="16" fill="#966C6C" />
<rect x="112" y="80" width="16" height="16" fill="#966C6C" />
<rect x="128" y="80" width="16" height="16" fill="#966C6C" />
<rect x="144" y="80" width="16" height="16" fill="#966C6C" />
<rect x="160" y="80" width="16" height="16" fill="#966C6C" />
<rect x="176" y="80" width="16" height="16" fill="#966C6C" />
<rect x="192" y="80" width="16" height="16" fill="#966C6C" />
<rect x="208" y="80" width="16" height="16" fill="#966C6C" />
<rect x="224" y="80" width="16" height="16" fill="#966C6C" />
<rect x="128" y="96" width="16" height="16" fill="#966C6C" />
<rect x="144" y="96" width="16" height="16" fill="#966C6C" />
<rect x="160" y="96" width="16" height="16" fill="#966C6C" />
<rect x="176" y="96" width="16" height="16" fill="#966C6C" />
<rect x="176" y="192" width="16" height="16" fill="#625565" />
<rect x="192" y="192" width="16" height="16" fill="#625565" />
<rect x="208" y="192" width="16" height="16" fill="#625565" />
<rect x="224" y="192" width="16" height="16" fill="#625565" />
<rect x="240" y="192" width="16" height="16" fill="#625565" />
<rect x="256" y="192" width="16" height="16" fill="#625565" />
<rect x="272" y="192" width="16" height="16" fill="#625565" />
<rect x="288" y="192" width="16" height="16" fill="#625565" />
<rect x="304" y="192" width="16" height="16" fill="#625565" />
<rect x="320" y="192" width="16" height="16" fill="#625565" />
<rect x="80" y="208" width="16" height="16" fill="#625565" />
<rect x="96" y="208" width="16" height="16" fill="#625565" />
<rect x="112" y="208" width="16" height="16" fill="#625565" />
<rect x="128" y="208" width="16" height="16" fill="#625565" />
<rect x="144" y="208" width="16" height="16" fill="#625565" />
<rect x="160" y="208" width="16" height="16" fill="#625565" />
<rect x="176" y="208" width="16" height="16" fill="#966C6C" />
<rect x="192" y="208" width="16" height="16" fill="#966C6C" />
<rect x="208" y="208" width="16" height="16" fill="#966C6C" />
<rect x="224" y="208" width="16" height="16" fill="#966C6C" />
<rect x="240" y="208" width="16" height="16" fill="#966C6C" />
<rect x="256" y="208" width="16" height="16" fill="#966C6C" />
<rect x="272" y="208" width="16" height="16" fill="#966C6C" />
<rect x="288" y="208" width="16" height="16" fill="#966C6C" />
<rect x="304" y="208" width="16" height="16" fill="#966C6C" />
<rect x="320" y="208" width="16" height="16" fill="#966C6C" />
<rect x="336" y="208" width="16" height="16" fill="#625565" />
<rect x="352" y="208" width="16" height="16" fill="#625565" />
<rect x="112" y="224" width="16" height="16" fill="#966C6C" />
<rect x="128" y="224" width="16" height="16" fill="#966C6C" />
<rect x="144" y="224" width="16" height="16" fill="#966C6C" />
<rect x="160" y="224" width="16" height="16" fill="#966C6C" />
<rect x="176" y="224" width="16" height="16" fill="#966C6C" />
<rect x="192" y="224" width="16" height="16" fill="#966C6C" />
<rect x="208" y="224" width="16" height="16" fill="#966C6C" />
<rect x="224" y="224" width="16" height="16" fill="#966C6C" />
<rect x="240" y="224" width="16" height="16" fill="#966C6C" />
<rect x="256" y="224" width="16" height="16" fill="#966C6C" />
<rect x="272" y="224" width="16" height="16" fill="#966C6C" />
<rect x="288" y="224" width="16" height="16" fill="#966C6C" />
<rect x="304" y="224" width="16" height="16" fill="#966C6C" />
<rect x="320" y="224" width="16" height="16" fill="#966C6C" />
<rect x="336" y="224" width="16" height="16" fill="#966C6C" />
<rect x="352" y="224" width="16" height="16" fill="#966C6C" />
<rect x="368" y="224" width="16" height="16" fill="#625565" />
<rect x="160" y="240" width="16" height="16" fill="#966C6C" />
<rect x="176" y="240" width="16" height="16" fill="#966C6C" />
<rect x="192" y="240" width="16" height="16" fill="#966C6C" />
<rect x="208" y="240" width="16" height="16" fill="#966C6C" />
<rect x="224" y="240" width="16" height="16" fill="#966C6C" />
<rect x="240" y="240" width="16" height="16" fill="#966C6C" />
<rect x="256" y="240" width="16" height="16" fill="#966C6C" />
<rect x="272" y="240" width="16" height="16" fill="#966C6C" />
<rect x="288" y="240" width="16" height="16" fill="#966C6C" />
<rect x="304" y="240" width="16" height="16" fill="#966C6C" />
<rect x="320" y="240" width="16" height="16" fill="#966C6C" />
<rect x="336" y="240" width="16" height="16" fill="#966C6C" />
<rect x="352" y="240" width="16" height="16" fill="#966C6C" />
<rect x="160" y="256" width="16" height="16" fill="#966C6C" />
<rect x="176" y="256" width="16" height="16" fill="#966C6C" />
<rect x="192" y="256" width="16" height="16" fill="#966C6C" />
<rect x="208" y="256" width="16" height="16" fill="#966C6C" />
<rect x="224" y="256" width="16" height="16" fill="#966C6C" />
<rect x="240" y="256" width="16" height="16" fill="#966C6C" />
<rect x="256" y="256" width="16" height="16" fill="#966C6C" />
<rect x="272" y="256" width="16" height="16" fill="#966C6C" />
<rect x="288" y="256" width="16" height="16" fill="#966C6C" />
<rect x="304" y="256" width="16" height="16" fill="#966C6C" />
<rect x="320" y="256" width="16" height="16" fill="#966C6C" />
<rect x="336" y="256" width="16" height="16" fill="#966C6C" />
<rect x="224" y="272" width="16" height="16" fill="#966C6C" />
<rect x="240" y="272" width="16" height="16" fill="#966C6C" />
<rect x="256" y="272" width="16" height="16" fill="#966C6C" />
<rect x="272" y="272" width="16" height="16" fill="#966C6C" />
<rect x="288" y="272" width="16" height="16" fill="#966C6C" />
<rect x="304" y="272" width="16" height="16" fill="#966C6C" />
<rect x="320" y="272" width="16" height="16" fill="#966C6C" />
<rect x="336" y="272" width="16" height="16" fill="#966C6C" />
<rect x="352" y="272" width="16" height="16" fill="#625565" />
<rect x="368" y="272" width="16" height="16" fill="#625565" />
<rect x="384" y="272" width="16" height="16" fill="#625565" />
<rect x="240" y="288" width="16" height="16" fill="#966C6C" />
<rect x="256" y="288" width="16" height="16" fill="#966C6C" />
<rect x="272" y="288" width="16" height="16" fill="#966C6C" />
<rect x="288" y="288" width="16" height="16" fill="#966C6C" />
<rect x="304" y="288" width="16" height="16" fill="#966C6C" />
<rect x="320" y="288" width="16" height="16" fill="#966C6C" />
<rect x="336" y="288" width="16" height="16" fill="#966C6C" />
<rect x="352" y="288" width="16" height="16" fill="#966C6C" />
<rect x="368" y="288" width="16" height="16" fill="#966C6C" />
<rect x="656" y="304" width="16" height="16" fill="#753C54" />
<rect x="672" y="304" width="16" height="16" fill="#753C54" />
<rect x="688" y="304" width="16" height="16" fill="#753C54" />
<rect x="704" y="304" width="16" height="16" fill="#753C54" />
<rect x="720" y="304" width="16" height="16" fill="#753C54" />
<rect x="736" y="304" width="16" height="16" fill="#753C54" />
<rect x="752" y="304" width="16" height="16" fill="#753C54" />
<rect x="688" y="320" width="16" height="16" fill="#753C54" />
<rect x="704" y="320" width="16" height="16" fill="#753C54" />
<rect x="720" y="320" width="16" height="16" fill="#753C54" />
<rect x="880" y="320" width="16" height="16" fill="#753C54" />
<rect x="896" y="320" width="16" height="16" fill="#753C54" />
<rect x="912" y="320" width="16" height="16" fill="#753C54" />
<rect x="928" y="320" width="16" height="16" fill="#753C54" />
<rect x="944" y="320" width="16" height="16" fill="#753C54" />
<rect x="960" y="320" width="16" height="16" fill="#753C54" />
<rect x="816" y="336" width="16" height="16" fill="#753C54" />
<rect x="832" y="336" width="16" height="16" fill="#753C54" />
<rect x="848" y="336" width="16" height="16" fill="#753C54" />
<rect x="864" y="336" width="16" height="16" fill="#753C54" />
<rect x="880" y="336" width="16" height="16" fill="#753C54" />
<rect x="896" y="336" width="16" height="16" fill="#753C54" />
<rect x="912" y="336" width="16" height="16" fill="#753C54" />
<rect x="928" y="336" width="16" height="16" fill="#753C54" />
<rect x="944" y="336" width="16" height="16" fill="#753C54" />
<rect x="960" y="336" width="16" height="16" fill="#753C54" />
<rect x="976" y="336" width="16" height="16" fill="#753C54" />
<rect x="832" y="352" width="16" height="16" fill="#753C54" />
<rect x="848" y="352" width="16" height="16" fill="#753C54" />
<rect x="864" y="352" width="16" height="16" fill="#753C54" />
<rect x="880" y="352" width="16" height="16" fill="#753C54" />
<rect x="896" y="352" width="16" height="16" fill="#753C54" />
<rect x="912" y="352" width="16" height="16" fill="#753C54" />
<rect x="928" y="352" width="16" height="16" fill="#753C54" />
<rect x="608" y="400" width="16" height="16" fill="#753C54" />
<rect x="624" y="400" width="16" height="16" fill="#753C54" />
<rect x="640" y="400" width="16" height="16" fill="#753C54" />
<rect x="656" y="400" width="16" height="16" fill="#753C54" />
<rect x="672" y="400" width="16" height="16" fill="#753C54" />
<rect x="688" y="400" width="16" height="16" fill="#753C54" />
<rect x="704" y="400" width="16" height="16" fill="#753C54" />
<rect x="720" y="400" width="16" height="16" fill="#753C54" />
<rect x="736" y="400" width="16" height="16" fill="#753C54" />
<rect x="752" y="400" width="16" height="16" fill="#753C54" />
<rect x="512" y="416" width="16" height="16" fill="#753C54" />
<rect x="528" y="416" width="16" height="16" fill="#753C54" />
<rect x="544" y="416" width="16" height="16" fill="#753C54" />
<rect x="560" y="416" width="16" height="16" fill="#753C54" />
<rect x="576" y="416" width="16" height="16" fill="#753C54" />
<rect x="592" y="416" width="16" height="16" fill="#753C54" />
<rect x="608" y="416" width="16" height="16" fill="#753C54" />
<rect x="624" y="416" width="16" height="16" fill="#753C54" />
<rect x="640" y="416" width="16" height="16" fill="#753C54" />
<rect x="656" y="416" width="16" height="16" fill="#753C54" />
<rect x="672" y="416" width="16" height="16" fill="#753C54" />
<rect x="688" y="416" width="16" height="16" fill="#753C54" />
<rect x="704" y="416" width="16" height="16" fill="#753C54" />
<rect x="720" y="416" width="16" height="16" fill="#753C54" />
<rect x="736" y="416" width="16" height="16" fill="#753C54" />
<rect x="752" y="416" width="16" height="16" fill="#753C54" />
<rect x="768" y="416" width="16" height="16" fill="#753C54" />
<rect x="784" y="416" width="16" height="16" fill="#753C54" />
<rect x="800" y="416" width="16" height="16" fill="#753C54" />
<rect x="560" y="432" width="16" height="16" fill="#753C54" />
<rect x="576" y="432" width="16" height="16" fill="#753C54" />
<rect x="592" y="432" width="16" height="16" fill="#753C54" />
<rect x="608" y="432" width="16" height="16" fill="#753C54" />
<rect x="624" y="432" width="16" height="16" fill="#753C54" />
<rect x="640" y="432" width="16" height="16" fill="#753C54" />
<rect x="656" y="432" width="16" height="16" fill="#753C54" />
<rect x="672" y="432" width="16" height="16" fill="#753C54" />
<rect x="688" y="432" width="16" height="16" fill="#753C54" />
<rect x="704" y="432" width="16" height="16" fill="#753C54" />
<rect x="720" y="432" width="16" height="16" fill="#753C54" />
<rect x="736" y="432" width="16" height="16" fill="#753C54" />
<rect x="752" y="432" width="16" height="16" fill="#753C54" />
<rect x="768" y="432" width="16" height="16" fill="#753C54" />
<rect x="784" y="432" width="16" height="16" fill="#753C54" />
<rect x="640" y="448" width="16" height="16" fill="#753C54" />
<rect x="656" y="448" width="16" height="16" fill="#753C54" />
<rect x="672" y="448" width="16" height="16" fill="#753C54" />
<rect x="688" y="448" width="16" height="16" fill="#753C54" />
<rect x="704" y="448" width="16" height="16" fill="#753C54" />
<rect x="720" y="448" width="16" height="16" fill="#753C54" />
<rect x="736" y="448" width="16" height="16" fill="#753C54" />
<rect x="752" y="448" width="16" height="16" fill="#753C54" />
<rect x="768" y="448" width="16" height="16" fill="#753C54" />
<rect x="432" y="608" width="16" height="16" fill="#753C54" />
<rect x="448" y="608" width="16" height="16" fill="#753C54" />
<rect x="464" y="608" width="16" height="16" fill="#753C54" />
<rect x="480" y="608" width="16" height="16" fill="#753C54" />
<rect x="496" y="608" width="16" height="16" fill="#753C54" />
<rect x="512" y="608" width="16" height="16" fill="#753C54" />
<rect x="528" y="608" width="16" height="16" fill="#753C54" />
<rect x="544" y="608" width="16" height="16" fill="#753C54" />
<rect x="928" y="608" width="16" height="16" fill="#753C54" />
<rect x="944" y="608" width="16" height="16" fill="#753C54" />
<rect x="960" y="608" width="16" height="16" fill="#753C54" />
<rect x="976" y="608" width="16" height="16" fill="#753C54" />
<rect x="400" y="624" width="16" height="16" fill="#753C54" />
<rect x="416" y="624" width="16" height="16" fill="#753C54" />
<rect x="432" y="624" width="16" height="16" fill="#753C54" />
<rect x="448" y="624" width="16" height="16" fill="#753C54" />
<rect x="464" y="624" width="16" height="16" fill="#753C54" />
<rect x="480" y="624" width="16" height="16" fill="#753C54" />
<rect x="496" y="624" width="16" height="16" fill="#753C54" />
<rect x="512" y="624" width="16" height="16" fill="#753C54" />
<rect x="528" y="624" width="16" height="16" fill="#753C54" />
<rect x="896" y="624" width="16" height="16" fill="#753C54" />
<rect x="912" y="624" width="16" height="16" fill="#753C54" />
<rect x="928" y="624" width="16" height="16" fill="#753C54" />
<rect x="944" y="624" width="16" height="16" fill="#753C54" />
<rect x="960" y="624" width="16" height="16" fill="#753C54" />
<rect x="496" y="640" width="16" height="16" fill="#753C54" />
<rect x="512" y="640" width="16" height="16" fill="#753C54" />
<rect x="528" y="640" width="16" height="16" fill="#753C54" />
<rect x="608" y="640" width="16" height="16" fill="#753C54" />
<rect x="624" y="640" width="16" height="16" fill="#753C54" />
<rect x="640" y="640" width="16" height="16" fill="#753C54" />
<rect x="656" y="640" width="16" height="16" fill="#753C54" />
<rect x="672" y="640" width="16" height="16" fill="#753C54" />
<rect x="688" y="640" width="16" height="16" fill="#753C54" />
<rect x="704" y="640" width="16" height="16" fill="#753C54" />
<rect x="576" y="656" width="16" height="16" fill="#753C54" />
<rect x="592" y="656" width="16" height="16" fill="#753C54" />
<rect x="608" y="656" width="16" height="16" fill="#753C54" />
<rect x="624" y="656" width="16" height="16" fill="#753C54" />
<rect x="640" y="656" width="16" height="16" fill="#753C54" />
<rect x="656" y="656" width="16" height="16" fill="#753C54" />
<rect x="672" y="656" width="16" height="16" fill="#753C54" />
<rect x="688" y="656" width="16" height="16" fill="#753C54" />
<rect x="704" y="656" width="16" height="16" fill="#753C54" />
<rect x="720" y="656" width="16" height="16" fill="#753C54" />
<rect x="736" y="656" width="16" height="16" fill="#753C54" />
<rect x="752" y="656" width="16" height="16" fill="#753C54" />
<rect x="768" y="656" width="16" height="16" fill="#753C54" />
<rect x="784" y="656" width="16" height="16" fill="#753C54" />
<rect x="800" y="656" width="16" height="16" fill="#753C54" />
<rect x="816" y="656" width="16" height="16" fill="#753C54" />
<rect x="832" y="656" width="16" height="16" fill="#753C54" />
<rect x="576" y="672" width="16" height="16" fill="#753C54" />
<rect x="592" y="672" width="16" height="16" fill="#753C54" />
<rect x="608" y="672" width="16" height="16" fill="#753C54" />
<rect x="624" y="672" width="16" height="16" fill="#753C54" />
<rect x="640" y="672" width="16" height="16" fill="#753C54" />
<rect x="656" y="672" width="16" height="16" fill="#753C54" />
<rect x="672" y="672" width="16" height="16" fill="#753C54" />
<rect x="688" y="672" width="16" height="16" fill="#753C54" />
<rect x="704" y="672" width="16" height="16" fill="#753C54" />
<rect x="720" y="672" width="16" height="16" fill="#753C54" />
<rect x="736" y="672" width="16" height="16" fill="#753C54" />
<rect x="752" y="672" width="16" height="16" fill="#753C54" />
<rect x="768" y="672" width="16" height="16" fill="#753C54" />
<rect x="784" y="672" width="16" height="16" fill="#753C54" />
<rect x="800" y="672" width="16" height="16" fill="#753C54" />
<rect x="816" y="672" width="16" height="16" fill="#753C54" />
<rect x="384" y="688" width="16" height="16" fill="#753C54" />
<rect x="400" y="688" width="16" height="16" fill="#753C54" />
<rect x="416" y="688" width="16" height="16" fill="#753C54" />
<rect x="432" y="688" width="16" height="16" fill="#753C54" />
<rect x="448" y="688" width="16" height="16" fill="#753C54" />
<rect x="464" y="688" width="16" height="16" fill="#753C54" />
<rect x="480" y="688" width="16" height="16" fill="#753C54" />
<rect x="496" y="688" width="16" height="16" fill="#753C54" />
<rect x="512" y="688" width="16" height="16" fill="#753C54" />
<rect x="528" y="688" width="16" height="16" fill="#753C54" />
<rect x="544" y="688" width="16" height="16" fill="#753C54" />
<rect x="560" y="688" width="16" height="16" fill="#753C54" />
<rect x="576" y="688" width="16" height="16" fill="#753C54" />
<rect x="592" y="688" width="16" height="16" fill="#753C54" />
<rect x="608" y="688" width="16" height="16" fill="#753C54" />
<rect x="624" y="688" width="16" height="16" fill="#753C54" />
<rect x="640" y="688" width="16" height="16" fill="#753C54" />
<rect x="656" y="688" width="16" height="16" fill="#753C54" />
<rect x="672" y="688" width="16" height="16" fill="#753C54" />
<rect x="688" y="688" width="16" height="16" fill="#753C54" />
<rect x="704" y="688" width="16" height="16" fill="#753C54" />
<rect x="720" y="688" width="16" height="16" fill="#753C54" />
<rect x="736" y="688" width="16" height="16" fill="#753C54" />
<rect x="752" y="688" width="16" height="16" fill="#753C54" />
<rect x="768" y="688" width="16" height="16" fill="#753C54" />
<rect x="784" y="688" width="16" height="16" fill="#753C54" />
<rect x="800" y="688" width="16" height="16" fill="#753C54" />
<rect x="816" y="688" width="16" height="16" fill="#753C54" />
<rect x="832" y="688" width="16" height="16" fill="#753C54" />
<rect x="848" y="688" width="16" height="16" fill="#753C54" />
<rect x="864" y="688" width="16" height="16" fill="#753C54" />
<rect x="880" y="688" width="16" height="16" fill="#753C54" />
<rect x="896" y="688" width="16" height="16" fill="#753C54" />
<rect x="912" y="688" width="16" height="16" fill="#753C54" />
<rect x="928" y="688" width="16" height="16" fill="#753C54" />
<rect x="384" y="704" width="16" height="16" fill="#753C54" />
<rect x="400" y="704" width="16" height="16" fill="#753C54" />
<rect x="416" y="704" width="16" height="16" fill="#753C54" />
<rect x="432" y="704" width="16" height="16" fill="#753C54" />
<rect x="448" y="704" width="16" height="16" fill="#753C54" />
<rect x="464" y="704" width="16" height="16" fill="#753C54" />
<rect x="480" y="704" width="16" height="16" fill="#753C54" />
<rect x="496" y="704" width="16" height="16" fill="#753C54" />
<rect x="512" y="704" width="16" height="16" fill="#753C54" />
<rect x="528" y="704" width="16" height="16" fill="#753C54" />
<rect x="544" y="704" width="16" height="16" fill="#753C54" />
<rect x="560" y="704" width="16" height="16" fill="#753C54" />
<rect x="576" y="704" width="16" height="16" fill="#753C54" />
<rect x="592" y="704" width="16" height="16" fill="#753C54" />
<rect x="608" y="704" width="16" height="16" fill="#753C54" />
<rect x="624" y="704" width="16" height="16" fill="#753C54" />
<rect x="640" y="704" width="16" height="16" fill="#753C54" />
<rect x="656" y="704" width="16" height="16" fill="#753C54" />
<rect x="672" y="704" width="16" height="16" fill="#753C54" />
<rect x="688" y="704" width="16" height="16" fill="#753C54" />
<rect x="704" y="704" width="16" height="16" fill="#753C54" />
<rect x="720" y="704" width="16" height="16" fill="#753C54" />
<rect x="736" y="704" width="16" height="16" fill="#753C54" />
<rect x="752" y="704" width="16" height="16" fill="#753C54" />
<rect x="768" y="704" width="16" height="16" fill="#753C54" />
<rect x="784" y="704" width="16" height="16" fill="#753C54" />
<rect x="800" y="704" width="16" height="16" fill="#753C54" />
<rect x="816" y="704" width="16" height="16" fill="#753C54" />
<rect x="832" y="704" width="16" height="16" fill="#753C54" />
<rect x="848" y="704" width="16" height="16" fill="#753C54" />
<rect x="864" y="704" width="16" height="16" fill="#753C54" />
<rect x="880" y="704" width="16" height="16" fill="#753C54" />
<rect x="336" y="720" width="16" height="16" fill="#753C54" />
<rect x="352" y="720" width="16" height="16" fill="#753C54" />
<rect x="368" y="720" width="16" height="16" fill="#753C54" />
<rect x="384" y="720" width="16" height="16" fill="#753C54" />
<rect x="400" y="720" width="16" height="16" fill="#753C54" />
<rect x="416" y="720" width="16" height="16" fill="#753C54" />
<rect x="432" y="720" width="16" height="16" fill="#753C54" />
<rect x="448" y="720" width="16" height="16" fill="#753C54" />
<rect x="464" y="720" width="16" height="16" fill="#753C54" />
<rect x="480" y="720" width="16" height="16" fill="#753C54" />
<rect x="496" y="720" width="16" height="16" fill="#753C54" />
<rect x="512" y="720" width="16" height="16" fill="#753C54" />
<rect x="528" y="720" width="16" height="16" fill="#753C54" />
<rect x="544" y="720" width="16" height="16" fill="#753C54" />
<rect x="560" y="720" width="16" height="16" fill="#753C54" />
<rect x="576" y="720" width="16" height="16" fill="#753C54" />
<rect x="592" y="720" width="16" height="16" fill="#753C54" />
<rect x="608" y="720" width="16" height="16" fill="#753C54" />
<rect x="624" y="720" width="16" height="16" fill="#753C54" />
<rect x="640" y="720" width="16" height="16" fill="#753C54" />
<rect x="656" y="720" width="16" height="16" fill="#753C54" />
<rect x="672" y="720" width="16" height="16" fill="#753C54" />
<rect x="688" y="720" width="16" height="16" fill="#753C54" />
<rect x="704" y="720" width="16" height="16" fill="#753C54" />
<rect x="720" y="720" width="16" height="16" fill="#753C54" />
<rect x="736" y="720" width="16" height="16" fill="#753C54" />
<rect x="752" y="720" width="16" height="16" fill="#753C54" />
<rect x="768" y="720" width="16" height="16" fill="#753C54" />
<rect x="784" y="720" width="16" height="16" fill="#753C54" />
<rect x="800" y="720" width="16" height="16" fill="#753C54" />
<rect x="816" y="720" width="16" height="16" fill="#753C54" />
<rect x="832" y="720" width="16" height="16" fill="#753C54" />
<rect x="848" y="720" width="16" height="16" fill="#753C54" />
<rect x="864" y="720" width="16" height="16" fill="#753C54" />
<rect x="880" y="720" width="16" height="16" fill="#753C54" />
<rect x="896" y="720" width="16" height="16" fill="#753C54" />
<rect x="288" y="736" width="16" height="16" fill="#753C54" />
<rect x="304" y="736" width="16" height="16" fill="#753C54" />
<rect x="320" y="736" width="16" height="16" fill="#753C54" />
<rect x="336" y="736" width="16" height="16" fill="#753C54" />
<rect x="352" y="736" width="16" height="16" fill="#753C54" />
<rect x="368" y="736" width="16" height="16" fill="#753C54" />
<rect x="384" y="736" width="16" height="16" fill="#753C54" />
<rect x="400" y="736" width="16" height="16" fill="#753C54" />
<rect x="416" y="736" width="16" height="16" fill="#753C54" />
<rect x="432" y="736" width="16" height="16" fill="#753C54" />
<rect x="448" y="736" width="16" height="16" fill="#753C54" />
<rect x="464" y="736" width="16" height="16" fill="#753C54" />
<rect x="480" y="736" width="16" height="16" fill="#753C54" />
<rect x="496" y="736" width="16" height="16" fill="#753C54" />
<rect x="512" y="736" width="16" height="16" fill="#753C54" />
<rect x="528" y="736" width="16" height="16" fill="#753C54" />
<rect x="544" y="736" width="16" height="16" fill="#753C54" />
<rect x="560" y="736" width="16" height="16" fill="#753C54" />
<rect x="576" y="736" width="16" height="16" fill="#753C54" />
<rect x="592" y="736" width="16" height="16" fill="#753C54" />
<rect x="608" y="736" width="16" height="16" fill="#753C54" />
<rect x="624" y="736" width="16" height="16" fill="#753C54" />
<rect x="640" y="736" width="16" height="16" fill="#753C54" />
<rect x="656" y="736" width="16" height="16" fill="#753C54" />
<rect x="672" y="736" width="16" height="16" fill="#753C54" />
<rect x="688" y="736" width="16" height="16" fill="#753C54" />
<rect x="704" y="736" width="16" height="16" fill="#753C54" />
<rect x="720" y="736" width="16" height="16" fill="#753C54" />
<rect x="736" y="736" width="16" height="16" fill="#753C54" />
<rect x="752" y="736" width="16" height="16" fill="#753C54" />
<rect x="768" y="736" width="16" height="16" fill="#753C54" />
<rect x="784" y="736" width="16" height="16" fill="#753C54" />
<rect x="800" y="736" width="16" height="16" fill="#753C54" />
<rect x="816" y="736" width="16" height="16" fill="#753C54" />
<rect x="832" y="736" width="16" height="16" fill="#753C54" />
<rect x="848" y="736" width="16" height="16" fill="#753C54" />
<rect x="864" y="736" width="16" height="16" fill="#753C54" />
<rect x="880" y="736" width="16" height="16" fill="#753C54" />
<rect x="896" y="736" width="16" height="16" fill="#753C54" />
<rect x="352" y="752" width="16" height="16" fill="#753C54" />
<rect x="368" y="752" width="16" height="16" fill="#753C54" />
<rect x="384" y="752" width="16" height="16" fill="#753C54" />
<rect x="400" y="752" width="16" height="16" fill="#753C54" />
<rect x="416" y="752" width="16" height="16" fill="#753C54" />
<rect x="432" y="752" width="16" height="16" fill="#753C54" />
<rect x="448" y="752" width="16" height="16" fill="#753C54" />
<rect x="464" y="752" width="16" height="16" fill="#753C54" />
<rect x="480" y="752" width="16" height="16" fill="#753C54" />
<rect x="496" y="752" width="16" height="16" fill="#753C54" />
<rect x="512" y="752" width="16" height="16" fill="#753C54" />
<rect x="528" y="752" width="16" height="16" fill="#753C54" />
<rect x="544" y="752" width="16" height="16" fill="#753C54" />
<rect x="560" y="752" width="16" height="16" fill="#753C54" />
<rect x="576" y="752" width="16" height="16" fill="#753C54" />
<rect x="592" y="752" width="16" height="16" fill="#753C54" />
<rect x="608" y="752" width="16" height="16" fill="#753C54" />
<rect x="624" y="752" width="16" height="16" fill="#753C54" />
<rect x="640" y="752" width="16" height="16" fill="#753C54" />
<rect x="656" y="752" width="16" height="16" fill="#753C54" />
<rect x="672" y="752" width="16" height="16" fill="#753C54" />
<rect x="688" y="752" width="16" height="16" fill="#753C54" />
<rect x="704" y="752" width="16" height="16" fill="#753C54" />
<rect x="720" y="752" width="16" height="16" fill="#753C54" />
<rect x="736" y="752" width="16" height="16" fill="#753C54" />
<rect x="752" y="752" width="16" height="16" fill="#753C54" />
<rect x="768" y="752" width="16" height="16" fill="#753C54" />
<rect x="784" y="752" width="16" height="16" fill="#753C54" />
<rect x="800" y="752" width="16" height="16" fill="#753C54" />
<rect x="816" y="752" width="16" height="16" fill="#753C54" />
<rect x="832" y="752" width="16" height="16" fill="#753C54" />
<rect x="848" y="752" width="16" height="16" fill="#753C54" />
<rect x="864" y="752" width="16" height="16" fill="#753C54" />
<rect x="880" y="752" width="16" height="16" fill="#753C54" />
<rect x="416" y="768" width="16" height="16" fill="#753C54" />
<rect x="432" y="768" width="16" height="16" fill="#753C54" />
<rect x="448" y="768" width="16" height="16" fill="#753C54" />
<rect x="464" y="768" width="16" height="16" fill="#753C54" />
<rect x="480" y="768" width="16" height="16" fill="#753C54" />
<rect x="496" y="768" width="16" height="16" fill="#753C54" />
<rect x="512" y="768" width="16" height="16" fill="#753C54" />
<rect x="528" y="768" width="16" height="16" fill="#753C54" />
<rect x="544" y="768" width="16" height="16" fill="#753C54" />
<rect x="560" y="768" width="16" height="16" fill="#753C54" />
<rect x="576" y="768" width="16" height="16" fill="#753C54" />
<rect x="592" y="768" width="16" height="16" fill="#753C54" />
<rect x="608" y="768" width="16" height="16" fill="#753C54" />
<rect x="624" y="768" width="16" height="16" fill="#753C54" />
<rect x="640" y="768" width="16" height="16" fill="#753C54" />
<rect x="656" y="768" width="16" height="16" fill="#753C54" />
<rect x="672" y="768" width="16" height="16" fill="#753C54" />
<rect x="688" y="768" width="16" height="16" fill="#753C54" />
<rect x="704" y="768" width="16" height="16" fill="#753C54" />
<rect x="720" y="768" width="16" height="16" fill="#753C54" />
<rect x="736" y="768" width="16" height="16" fill="#753C54" />
<rect x="752" y="768" width="16" height="16" fill="#753C54" />
<rect x="768" y="768" width="16" height="16" fill="#753C54" />
<rect x="784" y="768" width="16" height="16" fill="#753C54" />
<rect x="800" y="768" width="16" height="16" fill="#753C54" />
<rect x="816" y="768" width="16" height="16" fill="#753C54" />
<rect x="832" y="768" width="16" height="16" fill="#753C54" />
<rect x="848" y="768" width="16" height="16" fill="#753C54" />
<rect x="864" y="768" width="16" height="16" fill="#753C54" />
<rect x="880" y="768" width="16" height="16" fill="#753C54" />
<rect x="896" y="768" width="16" height="16" fill="#753C54" />
<rect x="912" y="768" width="16" height="16" fill="#753C54" />
<rect x="928" y="768" width="16" height="16" fill="#753C54" />
<rect x="944" y="768" width="16" height="16" fill="#753C54" />
<rect x="960" y="768" width="16" height="16" fill="#753C54" />
<rect x="416" y="784" width="16" height="16" fill="#753C54" />
<rect x="432" y="784" width="16" height="16" fill="#753C54" />
<rect x="448" y="784" width="16" height="16" fill="#753C54" />
<rect x="464" y="784" width="16" height="16" fill="#753C54" />
<rect x="480" y="784" width="16" height="16" fill="#753C54" />
<rect x="496" y="784" width="16" height="16" fill="#753C54" />
<rect x="512" y="784" width="16" height="16" fill="#753C54" />
<rect x="528" y="784" width="16" height="16" fill="#753C54" />
<rect x="544" y="784" width="16" height="16" fill="#753C54" />
<rect x="560" y="784" width="16" height="16" fill="#753C54" />
<rect x="576" y="784" width="16" height="16" fill="#753C54" />
<rect x="592" y="784" width="16" height="16" fill="#753C54" />
<rect x="608" y="784" width="16" height="16" fill="#753C54" />
<rect x="624" y="784" width="16" height="16" fill="#753C54" />
<rect x="640" y="784" width="16" height="16" fill="#753C54" />
<rect x="656" y="784" width="16" height="16" fill="#753C54" />
<rect x="672" y="784" width="16" height="16" fill="#753C54" />
<rect x="688" y="784" width="16" height="16" fill="#753C54" />
<rect x="704" y="784" width="16" height="16" fill="#753C54" />
<rect x="720" y="784" width="16" height="16" fill="#753C54" />
<rect x="736" y="784" width="16" height="16" fill="#753C54" />
<rect x="752" y="784" width="16" height="16" fill="#753C54" />
<rect x="768" y="784" width="16" height="16" fill="#753C54" />
<rect x="784" y="784" width="16" height="16" fill="#753C54" />
<rect x="800" y="784" width="16" height="16" fill="#753C54" />
<rect x="816" y="784" width="16" height="16" fill="#753C54" />
<rect x="832" y="784" width="16" height="16" fill="#753C54" />
<rect x="848" y="784" width="16" height="16" fill="#753C54" />
<rect x="864" y="784" width="16" height="16" fill="#753C54" />
<rect x="880" y="784" width="16" height="16" fill="#753C54" />
<rect x="896" y="784" width="16" height="16" fill="#753C54" />
<rect x="912" y="784" width="16" height="16" fill="#753C54" />
<rect x="928" y="784" width="16" height="16" fill="#753C54" />
<rect x="944" y="784" width="16" height="16" fill="#753C54" />
<rect x="352" y="800" width="16" height="16" fill="#753C54" />
<rect x="368" y="800" width="16" height="16" fill="#753C54" />
<rect x="384" y="800" width="16" height="16" fill="#753C54" />
<rect x="400" y="800" width="16" height="16" fill="#753C54" />
<rect x="416" y="800" width="16" height="16" fill="#753C54" />
<rect x="432" y="800" width="16" height="16" fill="#753C54" />
<rect x="448" y="800" width="16" height="16" fill="#753C54" />
<rect x="464" y="800" width="16" height="16" fill="#753C54" />
<rect x="480" y="800" width="16" height="16" fill="#753C54" />
<rect x="496" y="800" width="16" height="16" fill="#753C54" />
<rect x="512" y="800" width="16" height="16" fill="#753C54" />
<rect x="528" y="800" width="16" height="16" fill="#753C54" />
<rect x="544" y="800" width="16" height="16" fill="#753C54" />
<rect x="560" y="800" width="16" height="16" fill="#753C54" />
<rect x="576" y="800" width="16" height="16" fill="#753C54" />
<rect x="592" y="800" width="16" height="16" fill="#753C54" />
<rect x="608" y="800" width="16" height="16" fill="#753C54" />
<rect x="624" y="800" width="16" height="16" fill="#753C54" />
<rect x="640" y="800" width="16" height="16" fill="#753C54" />
<rect x="656" y="800" width="16" height="16" fill="#753C54" />
<rect x="672" y="800" width="16" height="16" fill="#753C54" />
<rect x="688" y="800" width="16" height="16" fill="#753C54" />
<rect x="704" y="800" width="16" height="16" fill="#753C54" />
<rect x="720" y="800" width="16" height="16" fill="#753C54" />
<rect x="736" y="800" width="16" height="16" fill="#753C54" />
<rect x="752" y="800" width="16" height="16" fill="#753C54" />
<rect x="768" y="800" width="16" height="16" fill="#753C54" />
<rect x="784" y="800" width="16" height="16" fill="#753C54" />
<rect x="800" y="800" width="16" height="16" fill="#753C54" />
<rect x="816" y="800" width="16" height="16" fill="#753C54" />
<rect x="832" y="800" width="16" height="16" fill="#753C54" />
<rect x="848" y="800" width="16" height="16" fill="#753C54" />
<rect x="320" y="816" width="16" height="16" fill="#753C54" />
<rect x="336" y="816" width="16" height="16" fill="#753C54" />
<rect x="352" y="816" width="16" height="16" fill="#753C54" />
<rect x="368" y="816" width="16" height="16" fill="#753C54" />
<rect x="384" y="816" width="16" height="16" fill="#753C54" />
<rect x="496" y="816" width="16" height="16" fill="#753C54" />
<rect x="512" y="816" width="16" height="16" fill="#753C54" />
<rect x="528" y="816" width="16" height="16" fill="#753C54" />
<rect x="544" y="816" width="16" height="16" fill="#753C54" />
<rect x="560" y="816" width="16" height="16" fill="#753C54" />
<rect x="576" y="816" width="16" height="16" fill="#753C54" />
<rect x="592" y="816" width="16" height="16" fill="#753C54" />
<rect x="608" y="816" width="16" height="16" fill="#753C54" />
<rect x="624" y="816" width="16" height="16" fill="#753C54" />
<rect x="640" y="816" width="16" height="16" fill="#753C54" />
<rect x="656" y="816" width="16" height="16" fill="#753C54" />
<rect x="672" y="816" width="16" height="16" fill="#753C54" />
<rect x="688" y="816" width="16" height="16" fill="#753C54" />
<rect x="704" y="816" width="16" height="16" fill="#753C54" />
<rect x="720" y="816" width="16" height="16" fill="#753C54" />
<rect x="736" y="816" width="16" height="16" fill="#753C54" />
<rect x="752" y="816" width="16" height="16" fill="#753C54" />
<rect x="624" y="832" width="16" height="16" fill="#753C54" />
<rect x="640" y="832" width="16" height="16" fill="#753C54" />
<rect x="656" y="832" width="16" height="16" fill="#753C54" />
<rect x="672" y="832" width="16" height="16" fill="#753C54" />
<rect x="688" y="832" width="16" height="16" fill="#753C54" />
<rect x="704" y="832" width="16" height="16" fill="#753C54" />
<rect x="720" y="832" width="16" height="16" fill="#753C54" />
<rect x="736" y="832" width="16" height="16" fill="#753C54" />
<rect x="752" y="832" width="16" height="16" fill="#753C54" />
<rect x="768" y="832" width="16" height="16" fill="#753C54" />
<rect x="784" y="832" width="16" height="16" fill="#753C54" />
<rect x="800" y="832" width="16" height="16" fill="#753C54" />
<rect x="816" y="832" width="16" height="16" fill="#753C54" />
<rect x="832" y="832" width="16" height="16" fill="#753C54" />
<rect x="848" y="832" width="16" height="16" fill="#753C54" />
<rect x="864" y="832" width="16" height="16" fill="#753C54" />
<rect x="880" y="832" width="16" height="16" fill="#753C54" />
<rect x="592" y="848" width="16" height="16" fill="#753C54" />
<rect x="608" y="848" width="16" height="16" fill="#753C54" />
<rect x="624" y="848" width="16" height="16" fill="#753C54" />
<rect x="640" y="848" width="16" height="16" fill="#753C54" />
<rect x="656" y="848" width="16" height="16" fill="#753C54" />
<rect x="672" y="848" width="16" height="16" fill="#753C54" />
<rect x="688" y="848" width="16" height="16" fill="#753C54" />
<rect x="704" y="848" width="16" height="16" fill="#753C54" />
<rect x="720" y="848" width="16" height="16" fill="#753C54" />
<rect x="736" y="848" width="16" height="16" fill="#753C54" />
<rect x="752" y="848" width="16" height="16" fill="#753C54" />
<rect x="768" y="848" width="16" height="16" fill="#753C54" />
<rect x="784" y="848" width="16" height="16" fill="#753C54" />
<rect x="800" y="848" width="16" height="16" fill="#753C54" />
<rect x="816" y="848" width="16" height="16" fill="#753C54" />
<rect x="672" y="864" width="16" height="16" fill="#753C54" />
<rect x="688" y="864" width="16" height="16" fill="#753C54" />
<rect x="704" y="864" width="16" height="16" fill="#753C54" />
<rect x="720" y="864" width="16" height="16" fill="#753C54" />
<rect x="736" y="864" width="16" height="16" fill="#753C54" />
<rect x="752" y="864" width="16" height="16" fill="#753C54" />
<rect x="768" y="864" width="16" height="16" fill="#753C54" />
<rect x="400" y="896" width="16" height="16" fill="#753C54" />
<rect x="416" y="896" width="16" height="16" fill="#753C54" />
<rect x="432" y="896" width="16" height="16" fill="#753C54" />
<rect x="448" y="896" width="16" height="16" fill="#753C54" />
<rect x="464" y="896" width="16" height="16" fill="#753C54" />
<rect x="352" y="912" width="16" height="16" fill="#753C54" />
<rect x="368" y="912" width="16" height="16" fill="#753C54" />
<rect x="384" y="912" width="16" height="16" fill="#753C54" />
<rect x="400" y="912" width="16" height="16" fill="#753C54" />
<rect x="416" y="912" width="16" height="16" fill="#753C54" />
<rect x="432" y="912" width="16" height="16" fill="#753C54" />
<rect x="448" y="912" width="16" height="16" fill="#753C54" />
<rect x="464" y="912" width="16" height="16" fill="#753C54" />
<rect x="480" y="912" width="16" height="16" fill="#753C54" />
<rect x="496" y="912" width="16" height="16" fill="#753C54" />
<rect x="512" y="912" width="16" height="16" fill="#753C54" />
<rect x="400" y="928" width="16" height="16" fill="#753C54" />
<rect x="416" y="928" width="16" height="16" fill="#753C54" />
<rect x="432" y="928" width="16" height="16" fill="#753C54" />
<rect x="448" y="928" width="16" height="16" fill="#753C54" />
</svg>