<?xml version="1.0" encoding="UTF-8" ?>
<svg version="1.1" width="1024" height="1024" xmlns="http://www.w3.org/2000/svg" shape-rendering="crispEdges">
<rect x="144" y="0" width="16" height="16" fill="#753C54" />
<rect x="128" y="16" width="16" height="16" fill="#753C54" />
<rect x="144" y="16" width="16" height="16" fill="#753C54" />
<rect x="128" y="32" width="16" height="16" fill="#753C54" />
<rect x="144" y="32" width="16" height="16" fill="#753C54" />
<rect x="48" y="48" width="16" height="16" fill="#753C54" />
<rect x="128" y="48" width="16" height="16" fill="#753C54" />
<rect x="768" y="48" width="16" height="16" fill="#45293F" />
<rect x="48" y="64" width="16" height="16" fill="#753C54" />
<rect x="112" y="64" width="16" height="16" fill="#753C54" />
<rect x="128" y="64" width="16" height="16" fill="#753C54" />
<rect x="672" y="64" width="16" height="16" fill="#45293F" />
<rect x="768" y="64" width="16" height="16" fill="#45293F" />
<rect x="48" y="80" width="16" height="16" fill="#753C54" />
<rect x="64" y="80" width="16" height="16" fill="#753C54" />
<rect x="112" y="80" width="16" height="16" fill="#753C54" />
<rect x="128" y="80" width="16" height="16" fill="#753C54" />
<rect x="672" y="80" width="16" height="16" fill="#45293F" />
<rect x="768" y="80" width="16" height="16" fill="#45293F" />
<rect x="48" y="96" width="16" height="16" fill="#753C54" />
<rect x="64" y="96" width="16" height="16" fill="#753C54" />
<rect x="80" y="96" width="16" height="16" fill="#753C54" />
<rect x="112" y="96" width="16" height="16" fill="#753C54" />
<rect x="128" y="96" width="16" height="16" fill="#753C54" />
<rect x="656" y="96" width="16" height="16" fill="#45293F" />
<rect x="784" y="96" width="16" height="16" fill="#45293F" />
<rect x="0" y="112" width="16" height="16" fill="#753C54" />
<rect x="64" y="112" width="16" height="16" fill="#753C54" />
<rect x="80" y="112" width="16" height="16" fill="#753C54" />
<rect x="112" y="112" width="16" height="16" fill="#753C54" />
<rect x="128" y="112" width="16" height="16" fill="#753C54" />
<rect x="560" y="112" width="16" height="16" fill="#45293F" />
<rect x="640" y="112" width="16" height="16" fill="#45293F" />
<rect x="656" y="112" width="16" height="16" fill="#45293F" />
<rect x="784" y="112" width="16" height="16" fill="#45293F" />
<rect x="0" y="128" width="16" height="16" fill="#753C54" />
<rect x="16" y="128" width="16" height="16" fill="#753C54" />
<rect x="64" y="128" width="16" height="16" fill="#753C54" />
<rect x="80" y="128" width="16" height="16" fill="#753C54" />
<rect x="96" y="128" width="16" height="16" fill="#753C54" />
<rect x="112" y="128" width="16" height="16" fill="#753C54" />
<rect x="128" y="128" width="16" height="16" fill="#753C54" />
<rect x="576" y="128" width="16" height="16" fill="#45293F" />
<rect x="640" y="128" width="16" height="16" fill="#45293F" />
<rect x="656" y="128" width="16" height="16" fill="#45293F" />
<rect x="784" y="128" width="16" height="16" fill="#45293F" />
<rect x="0" y="144" width="16" height="16" fill="#753C54" />
<rect x="16" y="144" width="16" height="16" fill="#753C54" />
<rect x="32" y="144" width="16" height="16" fill="#45293F" />
<rect x="48" y="144" width="16" height="16" fill="#45293F" />
<rect x="64" y="144" width="16" height="16" fill="#753C54" />
<rect x="80" y="144" width="16" height="16" fill="#753C54" />
<rect x="96" y="144" width="16" height="16" fill="#753C54" />
<rect x="112" y="144" width="16" height="16" fill="#753C54" />
<rect x="128" y="144" width="16" height="16" fill="#753C54" />
<rect x="240" y="144" width="16" height="16" fill="#753C54" />
<rect x="352" y="144" width="16" height="16" fill="#753C54" />
<rect x="576" y="144" width="16" height="16" fill="#45293F" />
<rect x="592" y="144" width="16" height="16" fill="#45293F" />
<rect x="624" y="144" width="16" height="16" fill="#45293F" />
<rect x="640" y="144" width="16" height="16" fill="#45293F" />
<rect x="656" y="144" width="16" height="16" fill="#45293F" />
<rect x="784" y="144" width="16" height="16" fill="#45293F" />
<rect x="800" y="144" width="16" height="16" fill="#45293F" />
<rect x="0" y="160" width="16" height="16" fill="#753C54" />
<rect x="16" y="160" width="16" height="16" fill="#753C54" />
<rect x="32" y="160" width="16" height="16" fill="#45293F" />
<rect x="48" y="160" width="16" height="16" fill="#45293F" />
<rect x="64" y="160" width="16" height="16" fill="#45293F" />
<rect x="80" y="160" width="16" height="16" fill="#753C54" />
<rect x="96" y="160" width="16" height="16" fill="#753C54" />
<rect x="112" y="160" width="16" height="16" fill="#753C54" />
<rect x="128" y="160" width="16" height="16" fill="#45293F" />
<rect x="144" y="160" width="16" height="16" fill="#45293F" />
<rect x="224" y="160" width="16" height="16" fill="#753C54" />
<rect x="240" y="160" width="16" height="16" fill="#753C54" />
<rect x="352" y="160" width="16" height="16" fill="#753C54" />
<rect x="368" y="160" width="16" height="16" fill="#753C54" />
<rect x="592" y="160" width="16" height="16" fill="#45293F" />
<rect x="608" y="160" width="16" height="16" fill="#45293F" />
<rect x="624" y="160" width="16" height="16" fill="#45293F" />
<rect x="640" y="160" width="16" height="16" fill="#45293F" />
<rect x="784" y="160" width="16" height="16" fill="#45293F" />
<rect x="800" y="160" width="16" height="16" fill="#45293F" />
<rect x="912" y="160" width="16" height="16" fill="#45293F" />
<rect x="0" y="176" width="16" height="16" fill="#45293F" />
<rect x="16" y="176" width="16" height="16" fill="#753C54" />
<rect x="32" y="176" width="16" height="16" fill="#753C54" />
<rect x="48" y="176" width="16" height="16" fill="#45293F" />
<rect x="64" y="176" width="16" height="16" fill="#45293F" />
<rect x="80" y="176" width="16" height="16" fill="#753C54" />
<rect x="96" y="176" width="16" height="16" fill="#753C54" />
<rect x="112" y="176" width="16" height="16" fill="#753C54" />
<rect x="128" y="176" width="16" height="16" fill="#753C54" />
<rect x="144" y="176" width="16" height="16" fill="#45293F" />
<rect x="224" y="176" width="16" height="16" fill="#753C54" />
<rect x="240" y="176" width="16" height="16" fill="#45293F" />
<rect x="352" y="176" width="16" height="16" fill="#753C54" />
<rect x="368" y="176" width="16" height="16" fill="#753C54" />
<rect x="592" y="176" width="16" height="16" fill="#45293F" />
<rect x="608" y="176" width="16" height="16" fill="#45293F" />
<rect x="624" y="176" width="16" height="16" fill="#45293F" />
<rect x="640" y="176" width="16" height="16" fill="#45293F" />
<rect x="784" y="176" width="16" height="16" fill="#45293F" />
<rect x="800" y="176" width="16" height="16" fill="#45293F" />
<rect x="928" y="176" width="16" height="16" fill="#45293F" />
<rect x="0" y="192" width="16" height="16" fill="#45293F" />
<rect x="16" y="192" width="16" height="16" fill="#753C54" />
<rect x="32" y="192" width="16" height="16" fill="#753C54" />
<rect x="48" y="192" width="16" height="16" fill="#753C54" />
<rect x="64" y="192" width="16" height="16" fill="#45293F" />
<rect x="80" y="192" width="16" height="16" fill="#753C54" />
<rect x="96" y="192" width="16" height="16" fill="#753C54" />
<rect x="112" y="192" width="16" height="16" fill="#753C54" />
<rect x="128" y="192" width="16" height="16" fill="#753C54" />
<rect x="144" y="192" width="16" height="16" fill="#45293F" />
<rect x="192" y="192" width="16" height="16" fill="#45293F" />
<rect x="208" y="192" width="16" height="16" fill="#753C54" />
<rect x="224" y="192" width="16" height="16" fill="#753C54" />
<rect x="240" y="192" width="16" height="16" fill="#45293F" />
<rect x="304" y="192" width="16" height="16" fill="#753C54" />
<rect x="368" y="192" width="16" height="16" fill="#753C54" />
<rect x="384" y="192" width="16" height="16" fill="#753C54" />
<rect x="576" y="192" width="16" height="16" fill="#45293F" />
<rect x="592" y="192" width="16" height="16" fill="#45293F" />
<rect x="608" y="192" width="16" height="16" fill="#45293F" />
<rect x="624" y="192" width="16" height="16" fill="#45293F" />
<rect x="784" y="192" width="16" height="16" fill="#45293F" />
<rect x="800" y="192" width="16" height="16" fill="#45293F" />
<rect x="928" y="192" width="16" height="16" fill="#45293F" />
<rect x="944" y="192" width="16" height="16" fill="#45293F" />
<rect x="992" y="192" width="16" height="16" fill="#45293F" />
<rect x="16" y="208" width="16" height="16" fill="#45293F" />
<rect x="32" y="208" width="16" height="16" fill="#753C54" />
<rect x="48" y="208" width="16" height="16" fill="#753C54" />
<rect x="64" y="208" width="16" height="16" fill="#45293F" />
<rect x="80" y="208" width="16" height="16" fill="#753C54" />
<rect x="96" y="208" width="16" height="16" fill="#753C54" />
<rect x="112" y="208" width="16" height="16" fill="#753C54" />
<rect x="128" y="208" width="16" height="16" fill="#753C54" />
<rect x="144" y="208" width="16" height="16" fill="#753C54" />
<rect x="160" y="208" width="16" height="16" fill="#45293F" />
<rect x="192" y="208" width="16" height="16" fill="#45293F" />
<rect x="208" y="208" width="16" height="16" fill="#753C54" />
<rect x="224" y="208" width="16" height="16" fill="#753C54" />
<rect x="240" y="208" width="16" height="16" fill="#45293F" />
<rect x="304" y="208" width="16" height="16" fill="#753C54" />
<rect x="320" y="208" width="16" height="16" fill="#753C54" />
<rect x="352" y="208" width="16" height="16" fill="#753C54" />
<rect x="368" y="208" width="16" height="16" fill="#753C54" />
<rect x="384" y="208" width="16" height="16" fill="#753C54" />
<rect x="432" y="208" width="16" height="16" fill="#753C54" />
<rect x="576" y="208" width="16" height="16" fill="#45293F" />
<rect x="592" y="208" width="16" height="16" fill="#45293F" />
<rect x="608" y="208" width="16" height="16" fill="#45293F" />
<rect x="624" y="208" width="16" height="16" fill="#45293F" />
<rect x="784" y="208" width="16" height="16" fill="#45293F" />
<rect x="800" y="208" width="16" height="16" fill="#45293F" />
<rect x="944" y="208" width="16" height="16" fill="#45293F" />
<rect x="976" y="208" width="16" height="16" fill="#45293F" />
<rect x="16" y="224" width="16" height="16" fill="#45293F" />
<rect x="32" y="224" width="16" height="16" fill="#753C54" />
<rect x="48" y="224" width="16" height="16" fill="#753C54" />
<rect x="64" y="224" width="16" height="16" fill="#45293F" />
<rect x="80" y="224" width="16" height="16" fill="#45293F" />
<rect x="96" y="224" width="16" height="16" fill="#753C54" />
<rect x="112" y="224" width="16" height="16" fill="#753C54" />
<rect x="128" y="224" width="16" height="16" fill="#753C54" />
<rect x="144" y="224" width="16" height="16" fill="#753C54" />
<rect x="160" y="224" width="16" height="16" fill="#45293F" />
<rect x="192" y="224" width="16" height="16" fill="#45293F" />
<rect x="208" y="224" width="16" height="16" fill="#753C54" />
<rect x="224" y="224" width="16" height="16" fill="#753C54" />
<rect x="240" y="224" width="16" height="16" fill="#45293F" />
<rect x="304" y="224" width="16" height="16" fill="#753C54" />
<rect x="320" y="224" width="16" height="16" fill="#753C54" />
<rect x="352" y="224" width="16" height="16" fill="#753C54" />
<rect x="368" y="224" width="16" height="16" fill="#753C54" />
<rect x="384" y="224" width="16" height="16" fill="#753C54" />
<rect x="416" y="224" width="16" height="16" fill="#753C54" />
<rect x="432" y="224" width="16" height="16" fill="#753C54" />
<rect x="560" y="224" width="16" height="16" fill="#45293F" />
<rect x="576" y="224" width="16" height="16" fill="#45293F" />
<rect x="592" y="224" width="16" height="16" fill="#45293F" />
<rect x="608" y="224" width="16" height="16" fill="#45293F" />
<rect x="624" y="224" width="16" height="16" fill="#45293F" />
<rect x="800" y="224" width="16" height="16" fill="#45293F" />
<rect x="816" y="224" width="16" height="16" fill="#45293F" />
<rect x="944" y="224" width="16" height="16" fill="#45293F" />
<rect x="960" y="224" width="16" height="16" fill="#45293F" />
<rect x="976" y="224" width="16" height="16" fill="#45293F" />
<rect x="16" y="240" width="16" height="16" fill="#45293F" />
<rect x="32" y="240" width="16" height="16" fill="#753C54" />
<rect x="48" y="240" width="16" height="16" fill="#753C54" />
<rect x="64" y="240" width="16" height="16" fill="#753C54" />
<rect x="80" y="240" width="16" height="16" fill="#45293F" />
<rect x="96" y="240" width="16" height="16" fill="#753C54" />
<rect x="112" y="240" width="16" height="16" fill="#753C54" />
<rect x="128" y="240" width="16" height="16" fill="#753C54" />
<rect x="144" y="240" width="16" height="16" fill="#753C54" />
<rect x="160" y="240" width="16" height="16" fill="#753C54" />
<rect x="176" y="240" width="16" height="16" fill="#45293F" />
<rect x="192" y="240" width="16" height="16" fill="#753C54" />
<rect x="208" y="240" width="16" height="16" fill="#753C54" />
<rect x="224" y="240" width="16" height="16" fill="#753C54" />
<rect x="240" y="240" width="16" height="16" fill="#45293F" />
<rect x="320" y="240" width="16" height="16" fill="#753C54" />
<rect x="336" y="240" width="16" height="16" fill="#753C54" />
<rect x="352" y="240" width="16" height="16" fill="#753C54" />
<rect x="368" y="240" width="16" height="16" fill="#753C54" />
<rect x="384" y="240" width="16" height="16" fill="#753C54" />
<rect x="416" y="240" width="16" height="16" fill="#753C54" />
<rect x="432" y="240" width="16" height="16" fill="#753C54" />
<rect x="560" y="240" width="16" height="16" fill="#45293F" />
<rect x="576" y="240" width="16" height="16" fill="#45293F" />
<rect x="592" y="240" width="16" height="16" fill="#45293F" />
<rect x="608" y="240" width="16" height="16" fill="#45293F" />
<rect x="624" y="240" width="16" height="16" fill="#45293F" />
<rect x="800" y="240" width="16" height="16" fill="#45293F" />
<rect x="816" y="240" width="16" height="16" fill="#45293F" />
<rect x="944" y="240" width="16" height="16" fill="#45293F" />
<rect x="960" y="240" width="16" height="16" fill="#45293F" />
<rect x="800" y="256" width="16" height="16" fill="#45293F" />
<rect x="816" y="256" width="16" height="16" fill="#45293F" />
<rect x="928" y="256" width="16" height="16" fill="#45293F" />
<rect x="944" y="256" width="16" height="16" fill="#45293F" />
<rect x="800" y="272" width="16" height="16" fill="#45293F" />
<rect x="816" y="272" width="16" height="16" fill="#45293F" />
<rect x="896" y="272" width="16" height="16" fill="#45293F" />
<rect x="912" y="272" width="16" height="16" fill="#45293F" />
<rect x="928" y="272" width="16" height="16" fill="#45293F" />
<rect x="944" y="272" width="16" height="16" fill="#45293F" />
<rect x="800" y="288" width="16" height="16" fill="#45293F" />
<rect x="816" y="288" width="16" height="16" fill="#45293F" />
<rect x="832" y="288" width="16" height="16" fill="#45293F" />
<rect x="880" y="288" width="16" height="16" fill="#45293F" />
<rect x="896" y="288" width="16" height="16" fill="#45293F" />
<rect x="912" y="288" width="16" height="16" fill="#45293F" />
<rect x="928" y="288" width="16" height="16" fill="#45293F" />
<rect x="800" y="304" width="16" height="16" fill="#45293F" />
<rect x="816" y="304" width="16" height="16" fill="#45293F" />
<rect x="832" y="304" width="16" height="16" fill="#45293F" />
<rect x="848" y="304" width="16" height="16" fill="#45293F" />
<rect x="864" y="304" width="16" height="16" fill="#45293F" />
<rect x="880" y="304" width="16" height="16" fill="#45293F" />
<rect x="896" y="304" width="16" height="16" fill="#45293F" />
<rect x="912" y="304" width="16" height="16" fill="#45293F" />
<rect x="800" y="320" width="16" height="16" fill="#45293F" />
<rect x="816" y="320" width="16" height="16" fill="#45293F" />
<rect x="832" y="320" width="16" height="16" fill="#45293F" />
<rect x="848" y="320" width="16" height="16" fill="#45293F" />
<rect x="864" y="320" width="16" height="16" fill="#45293F" />
<rect x="880" y="320" width="16" height="16" fill="#45293F" />
<rect x="896" y="320" width="16" height="16" fill="#45293F" />
<rect x="800" y="336" width="16" height="16" fill="#45293F" />
<rect x="816" y="336" width="16" height="16" fill="#45293F" />
<rect x="832" y="336" width="16" height="16" fill="#45293F" />
<rect x="848" y="336" width="16" height="16" fill="#45293F" />
<rect x="864" y="336" width="16" height="16" fill="#45293F" />
<rect x="880" y="336" width="16" height="16" fill="#45293F" />
<rect x="800" y="352" width="16" height="16" fill="#45293F" />
<rect x="816" y="352" width="16" height="16" fill="#45293F" />
<rect x="832" y="352" width="16" height="16" fill="#45293F" />
<rect x="848" y="352" width="16" height="16" fill="#45293F" />
<rect x="864" y="352" width="16" height="16" fill="#45293F" />
<rect x="128" y="368" width="16" height="16" fill="#753C54" />
<rect x="800" y="368" width="16" height="16" fill="#45293F" />
<rect x="816" y="368" width="16" height="16" fill="#45293F" />
<rect x="832" y="368" width="16" height="16" fill="#45293F" />
<rect x="848" y="368" width="16" height="16" fill="#45293F" />
<rect x="864" y="368" width="16" height="16" fill="#45293F" />
<rect x="128" y="384" width="16" height="16" fill="#753C54" />
<rect x="416" y="384" width="16" height="16" fill="#753C54" />
<rect x="816" y="384" width="16" height="16" fill="#45293F" />
<rect x="832" y="384" width="16" height="16" fill="#45293F" />
<rect x="848" y="384" width="16" height="16" fill="#45293F" />
<rect x="864" y="384" width="16" height="16" fill="#45293F" />
<rect x="880" y="384" width="16" height="16" fill="#45293F" />
<rect x="128" y="400" width="16" height="16" fill="#753C54" />
<rect x="416" y="400" width="16" height="16" fill="#753C54" />
<rect x="816" y="400" width="16" height="16" fill="#45293F" />
<rect x="832" y="400" width="16" height="16" fill="#45293F" />
<rect x="848" y="400" width="16" height="16" fill="#45293F" />
<rect x="864" y="400" width="16" height="16" fill="#45293F" />
<rect x="880" y="400" width="16" height="16" fill="#45293F" />
<rect x="128" y="416" width="16" height="16" fill="#753C54" />
<rect x="144" y="416" width="16" height="16" fill="#753C54" />
<rect x="320" y="416" width="16" height="16" fill="#753C54" />
<rect x="416" y="416" width="16" height="16" fill="#753C54" />
<rect x="816" y="416" width="16" height="16" fill="#45293F" />
<rect x="832" y="416" width="16" height="16" fill="#45293F" />
<rect x="848" y="416" width="16" height="16" fill="#45293F" />
<rect x="864" y="416" width="16" height="16" fill="#45293F" />
<rect x="880" y="416" width="16" height="16" fill="#45293F" />
<rect x="896" y="416" width="16" height="16" fill="#45293F" />
<rect x="48" y="432" width="16" height="16" fill="#753C54" />
<rect x="128" y="432" width="16" height="16" fill="#753C54" />
<rect x="144" y="432" width="16" height="16" fill="#753C54" />
<rect x="320" y="432" width="16" height="16" fill="#753C54" />
<rect x="400" y="432" width="16" height="16" fill="#753C54" />
<rect x="416" y="432" width="16" height="16" fill="#753C54" />
<rect x="832" y="432" width="16" height="16" fill="#45293F" />
<rect x="848" y="432" width="16" height="16" fill="#45293F" />
<rect x="864" y="432" width="16" height="16" fill="#45293F" />
<rect x="880" y="432" width="16" height="16" fill="#45293F" />
<rect x="896" y="432" width="16" height="16" fill="#45293F" />
<rect x="48" y="448" width="16" height="16" fill="#753C54" />
<rect x="64" y="448" width="16" height="16" fill="#753C54" />
<rect x="112" y="448" width="16" height="16" fill="#753C54" />
<rect x="128" y="448" width="16" height="16" fill="#753C54" />
<rect x="144" y="448" width="16" height="16" fill="#753C54" />
<rect x="320" y="448" width="16" height="16" fill="#753C54" />
<rect x="400" y="448" width="16" height="16" fill="#753C54" />
<rect x="416" y="448" width="16" height="16" fill="#753C54" />
<rect x="832" y="448" width="16" height="16" fill="#45293F" />
<rect x="848" y="448" width="16" height="16" fill="#45293F" />
<rect x="864" y="448" width="16" height="16" fill="#45293F" />
<rect x="880" y="448" width="16" height="16" fill="#45293F" />
<rect x="896" y="448" width="16" height="16" fill="#45293F" />
<rect x="912" y="448" width="16" height="16" fill="#45293F" />
<rect x="48" y="464" width="16" height="16" fill="#753C54" />
<rect x="64" y="464" width="16" height="16" fill="#753C54" />
<rect x="112" y="464" width="16" height="16" fill="#753C54" />
<rect x="128" y="464" width="16" height="16" fill="#753C54" />
<rect x="144" y="464" width="16" height="16" fill="#753C54" />
<rect x="304" y="464" width="16" height="16" fill="#753C54" />
<rect x="320" y="464" width="16" height="16" fill="#753C54" />
<rect x="368" y="464" width="16" height="16" fill="#753C54" />
<rect x="400" y="464" width="16" height="16" fill="#753C54" />
<rect x="416" y="464" width="16" height="16" fill="#753C54" />
<rect x="432" y="464" width="16" height="16" fill="#753C54" />
<rect x="848" y="464" width="16" height="16" fill="#45293F" />
<rect x="864" y="464" width="16" height="16" fill="#45293F" />
<rect x="880" y="464" width="16" height="16" fill="#45293F" />
<rect x="896" y="464" width="16" height="16" fill="#45293F" />
<rect x="912" y="464" width="16" height="16" fill="#45293F" />
<rect x="48" y="480" width="16" height="16" fill="#753C54" />
<rect x="64" y="480" width="16" height="16" fill="#753C54" />
<rect x="112" y="480" width="16" height="16" fill="#753C54" />
<rect x="128" y="480" width="16" height="16" fill="#753C54" />
<rect x="144" y="480" width="16" height="16" fill="#753C54" />
<rect x="304" y="480" width="16" height="16" fill="#753C54" />
<rect x="320" y="480" width="16" height="16" fill="#753C54" />
<rect x="352" y="480" width="16" height="16" fill="#753C54" />
<rect x="368" y="480" width="16" height="16" fill="#753C54" />
<rect x="384" y="480" width="16" height="16" fill="#753C54" />
<rect x="400" y="480" width="16" height="16" fill="#753C54" />
<rect x="416" y="480" width="16" height="16" fill="#753C54" />
<rect x="432" y="480" width="16" height="16" fill="#753C54" />
<rect x="848" y="480" width="16" height="16" fill="#45293F" />
<rect x="864" y="480" width="16" height="16" fill="#45293F" />
<rect x="880" y="480" width="16" height="16" fill="#45293F" />
<rect x="896" y="480" width="16" height="16" fill="#45293F" />
<rect x="912" y="480" width="16" height="16" fill="#45293F" />
<rect x="928" y="480" width="16" height="16" fill="#45293F" />
<rect x="48" y="496" width="16" height="16" fill="#753C54" />
<rect x="64" y="496" width="16" height="16" fill="#753C54" />
<rect x="112" y="496" width="16" height="16" fill="#753C54" />
<rect x="128" y="496" width="16" height="16" fill="#753C54" />
<rect x="144" y="496" width="16" height="16" fill="#753C54" />
<rect x="304" y="496" width="16" height="16" fill="#753C54" />
<rect x="320" y="496" width="16" height="16" fill="#753C54" />
<rect x="352" y="496" width="16" height="16" fill="#753C54" />
<rect x="368" y="496" width="16" height="16" fill="#753C54" />
<rect x="384" y="496" width="16" height="16" fill="#753C54" />
<rect x="400" y="496" width="16" height="16" fill="#753C54" />
<rect x="416" y="496" width="16" height="16" fill="#753C54" />
<rect x="432" y="496" width="16" height="16" fill="#753C54" />
<rect x="848" y="496" width="16" height="16" fill="#45293F" />
<rect x="864" y="496" width="16" height="16" fill="#45293F" />
<rect x="880" y="496" width="16" height="16" fill="#45293F" />
<rect x="896" y="496" width="16" height="16" fill="#45293F" />
<rect x="912" y="496" width="16" height="16" fill="#45293F" />
<rect x="928" y="496" width="16" height="16" fill="#45293F" />
</svg>